<?xml version="1.0" encoding="utf-8"?>
<!-- Generator: Adobe Illustrator 24.1.1, SVG Export Plug-In . SVG Version: 6.00 Build 0)  -->
<svg version="1.1" id="Layer_1" xmlns="http://www.w3.org/2000/svg" xmlns:xlink="http://www.w3.org/1999/xlink" x="0px" y="0px"
	 viewBox="0 0 630 630" style="enable-background:new 0 0 630 630;" xml:space="preserve">
<style type="text/css">
	.st0{fill:#F7DF1E;}
	.st1{fill:none;}
	.st2{enable-background:new    ;}
</style>
<rect class="st0" width="630" height="630"/>
<path d="M423.2,492.2c12.7,20.7,29.2,36,58.4,36c24.5,0,40.2-12.3,40.2-29.2c0-20.3-16.1-27.5-43.1-39.3l-14.8-6.4
	c-42.7-18.2-71.1-41-71.1-89.2c0-44.4,33.8-78.2,86.7-78.2c37.6,0,64.7,13.1,84.2,47.4l-46.1,29.6c-10.1-18.2-21.1-25.4-38.1-25.4
	c-17.3,0-28.3,11-28.3,25.4c0,17.8,11,25,36.4,36l14.8,6.3c50.3,21.6,78.7,43.6,78.7,93c0,53.3-41.9,82.5-98.1,82.5
	c-55,0-90.5-26.2-107.9-60.5L423.2,492.2z"/>
<rect x="136" y="271.4" class="st1" width="295.7" height="382.6"/>
<g class="st2">
	<path d="M164.8,291c20.5-3.5,49.3-6.1,89.8-6.1c41,0,70.2,7.8,89.8,23.5c18.7,14.8,31.4,39.2,31.4,68s-9.6,53.2-27,69.8
		c-22.7,21.4-56.2,31-95.5,31c-8.7,0-16.6-0.4-22.7-1.3V581h-65.8V291z M230.6,424.5c5.7,1.3,12.6,1.7,22.2,1.7
		c35.3,0,57.1-17.9,57.1-48c0-27-18.7-43.2-51.9-43.2c-13.5,0-22.7,1.3-27.5,2.6V424.5z"/>
</g>
</svg>
