<?xml version="1.0" encoding="utf-8"?>
<!-- Generator: Adobe Illustrator 24.1.1, SVG Export Plug-In . SVG Version: 6.00 Build 0)  -->
<svg version="1.1" id="Layer_1" xmlns="http://www.w3.org/2000/svg" xmlns:xlink="http://www.w3.org/1999/xlink" x="0px" y="0px"
	 viewBox="0 0 290 86" style="enable-background:new 0 0 290 86;" xml:space="preserve">
<style type="text/css">
	.st0{display:none;fill:#E50913;}
	.st1{fill:#E50913;}
</style>
<g id="Layer_2_1_">
	<g id="Layer_1-2">
		<path class="st0" d="M0,86V0h290v86H0z M279,42h-0.2c0-6.8,0.2-13.6-0.1-20.4c-0.2-5.5-3.5-9.7-8.7-10.8
			c-10.2-2.2-19.4,0.5-19.7,14.1c-0.2,10-0.2,20,0,29.9c0.1,2.8,0.7,5.6,1.8,8.2c2.7,6.7,10.5,10.4,18.2,8.9c5.3-1,8.2-5.1,8.6-12.8
			C279.2,53.3,279,47.7,279,42z M42.2,39.5c0,5.7-0.1,11.3,0,17c0.1,4.8,1.8,8.8,6.5,10.9c7.8,3.6,17.1,0.2,20.7-7.6
			c0.9-2,1.4-4.1,1.4-6.2c0.2-10.2,0.1-20.3,0-30.5c-0.1-8.5-5-12.9-14.3-12.9S42.3,14.6,42.2,23C42.1,28.5,42.2,34,42.2,39.5z
			 M100.2,37.5c5.9-4.3,5.2-10.6,4.7-16.7c-0.5-5.4-3.3-8.9-8.6-9.3c-6.2-0.5-12.5-0.1-18.8-0.1v54.4l9.2-1.2V43.3
			c7.2-1.1,8.5-0.4,9,5.9c0.4,4.9,0.1,9.8,0.1,15l9.5-0.6C106.8,50.3,105.3,42.7,100.2,37.5L100.2,37.5z M171.2,36.8
			c0,5.2-0.1,10.3,0,15.5c0.2,8,5.2,12.4,14,12.6c9.2,0.2,14.1-3.5,14.4-12c0.4-10.1,0.3-20.3,0-30.4c-0.1-6.3-3.3-10.1-8.9-11.8
			c-6.5-2-14.4-0.3-17.4,4.2c-1.2,1.9-2,4.1-2.1,6.4C171,26.4,171.2,31.6,171.2,36.8L171.2,36.8z M10.6,11.2v61.5l9.3-1.4V48.8
			c1.7-0.3,3.2-0.7,4.6-0.8c8.8-1.1,13-4.8,14-13.4c0.4-4.8,0.2-9.6-0.7-14.3c-0.9-5.5-4.9-8.7-10.4-9S16.4,11.2,10.6,11.2z
			 M152,18.4h9c6.5,0,6.7-0.3,5.3-7h-23.7v51.3h9.3v-22h11.6v-7.5H152V18.4z M128,18.8l9.4-0.8v-6.7h-28.1c-1.2,6-1.2,6,9,8v5.2
			c0,11.3,0.2,22.6-0.1,33.9c-0.2,4.8,1.7,5.9,5.8,5.1c1.2-0.2,2.5-0.5,4-0.8L128,18.8z M214.9,57.2V11.5h-9V65l24.5,1.9v-8.3
			L214.9,57.2z M235.4,11.3v56.3l8.8,0.4V11.3H235.4z"/>
		<path class="st1" d="M279,42c0,5.7,0.2,11.3-0.1,17c-0.4,7.8-3.2,11.8-8.6,12.8c-7.8,1.5-15.5-2.2-18.2-8.9
			c-1.1-2.6-1.7-5.4-1.8-8.2c-0.2-10-0.3-20,0-29.9c0.3-13.6,9.6-16.2,19.7-14c5.3,1.1,8.5,5.3,8.7,10.8c0.3,6.8,0.1,13.6,0.1,20.4
			L279,42z M269.4,40.8L269.4,40.8c-0.1-6,0.2-12-0.3-17.9c-0.1-1.5-2.4-3.7-3.9-3.9s-3.4,1.7-4.8,3c-0.7,0.7-0.6,2.2-0.6,3.3
			c0,10,0,20,0,29.9c0,1.1,0,2.7,0.7,3.3c1.6,1.5,3.5,3.1,5.6,3.6c0.7,0.2,3-2.8,3.1-4.5C269.6,52.1,269.4,46.4,269.4,40.8
			L269.4,40.8z"/>
		<path class="st1" d="M42.2,39.5c0-5.5-0.1-11,0-16.5c0.1-8.4,5.1-12.8,14.3-12.8s14.2,4.4,14.3,12.9c0.1,10.1,0.2,20.3,0,30.5
			c-0.2,8.6-7.3,15.4-15.9,15.3c-2.1,0-4.2-0.5-6.2-1.4c-4.7-2.1-6.3-6.2-6.5-10.9C42.1,50.8,42.2,45.2,42.2,39.5z M51.8,39
			c0,5,0,10,0,15c0,2.9,0.4,5.5,4,5.6s5.4-2,5.4-5.7c0-10.1,0-20.3,0-30.4c0-3.1-1.2-5.3-4.5-5.4c-3.5-0.1-5,2.1-5,5.5
			C51.8,28.6,51.8,33.8,51.8,39z"/>
		<path class="st1" d="M100.2,37.5c5.1,5.3,6.6,12.8,5.2,26.3l-9.5,0.6c0-5.3,0.3-10.2-0.1-15c-0.5-6.3-1.8-7-9-5.9v21.3l-9.2,1.2
			V11.3c6.3,0,12.6-0.4,18.8,0.1c5.3,0.4,8.1,3.9,8.6,9.3C105.4,26.9,106.1,33.1,100.2,37.5z M87,34.5c8.1-0.2,9.3-1.8,8.5-10.6
			c-0.5-5.2-1.5-5.8-8.5-4.7V34.5z"/>
		<path class="st1" d="M171.2,36.7c0-5.1-0.2-10.3,0.1-15.4c0.1-2.3,0.9-4.5,2.1-6.4c3-4.5,10.8-6.1,17.4-4.2
			c5.6,1.7,8.8,5.5,8.9,11.8c0.2,10.1,0.3,20.3,0,30.4c-0.3,8.4-5.2,12.2-14.4,12c-8.8-0.2-13.8-4.6-14-12.6
			C171.1,47,171.2,41.9,171.2,36.7z M190.2,37.3c0-4.7,0-9.3,0-14c0-3.2-1-5.5-4.8-5.6s-4.7,2.2-4.7,5.5c0,9.3,0,18.6,0,27.9
			c0,3.3,1.1,5.7,4.7,5.7s4.8-2.5,4.8-5.6C190.2,46.6,190.2,42,190.2,37.3L190.2,37.3z"/>
		<path class="st1" d="M10.6,11.2c5.9,0,11.3-0.2,16.8,0s9.5,3.4,10.4,9c0.9,4.7,1.1,9.5,0.7,14.3c-1,8.7-5.2,12.3-14,13.4
			c-1.5,0.2-2.9,0.5-4.6,0.8v22.5l-9.3,1.4L10.6,11.2z M20.1,39c7.3,0.5,8.9-0.9,9.1-7.7c0-1.3,0-2.6,0-4c-0.1-7.4-1.7-8.6-9.1-6.9
			V39z"/>
		<path class="st1" d="M152,18.4v14.7h11.5v7.5h-11.7v22h-9.3V11.4h23.7c1.4,6.7,1.2,7-5.3,7H152z"/>
		<path class="st1" d="M128,18.8v43.9c-1.5,0.3-2.8,0.6-4,0.8c-4.1,0.8-5.9-0.4-5.8-5.1c0.4-11.3,0.1-22.6,0.1-33.9v-5.2
			c-10.2-2-10.2-2-9-7.9h28.1V18L128,18.8z"/>
		<path class="st1" d="M214.9,57.2l15.5,1.5v8.3L205.9,65V11.5h9V57.2z"/>
		<path class="st1" d="M235.4,11.3h8.8V68l-8.8-0.4V11.3z"/>
		<path class="st0" d="M269.4,40.8c0,5.7,0.3,11.3-0.1,16.9c-0.1,1.7-2.4,4.6-3.1,4.5c-2-0.5-4-2.1-5.6-3.6
			c-0.7-0.6-0.6-2.2-0.7-3.3c0-10,0-20,0-29.9c0-1.1-0.1-2.7,0.6-3.3c1.3-1.4,3.2-3.2,4.8-3s3.8,2.4,3.9,3.9
			C269.6,28.8,269.3,34.9,269.4,40.8L269.4,40.8z"/>
		<path class="st0" d="M51.8,39c0-5.2,0-10.3,0-15.5c0-3.4,1.4-5.6,5-5.5c3.3,0.1,4.5,2.3,4.5,5.4c0,10.1,0,20.3,0,30.4
			c0,3.6-1.7,5.7-5.4,5.7s-4.1-2.7-4-5.6C51.8,48.9,51.8,43.9,51.8,39z"/>
		<path class="st0" d="M87,34.5V19.3c7-1.1,8-0.5,8.5,4.7C96.3,32.8,95.1,34.3,87,34.5z"/>
		<path class="st0" d="M190.2,37.3c0,4.7,0.1,9.3,0,14c-0.1,3.2-1.2,5.7-4.8,5.6s-4.7-2.4-4.7-5.7c0.1-9.3,0-18.6,0-27.9
			c0-3.3,0.9-5.6,4.7-5.5s4.8,2.5,4.8,5.6C190.2,28,190.2,32.7,190.2,37.3z"/>
		<path class="st0" d="M20.1,39V20.4c7.4-1.7,9-0.5,9.1,6.9c0,1.3,0,2.6,0,4C29,38.1,27.4,39.5,20.1,39z"/>
	</g>
</g>
</svg>
