<svg xmlns="http://www.w3.org/2000/svg" viewBox="0 0 198.98 27.58"><defs><style>.cls-1{fill:#fff;}</style></defs><g id="Layer_2" data-name="Layer 2"><g id="Layer_1-2" data-name="Layer 1"><path class="cls-1" d="M7.8,27.22V11.31H0V6.68H21.29v4.63H13.51V27.22Z"/><path class="cls-1" d="M25.35,17.56H33a3.08,3.08,0,0,0-.25-1.3,2.61,2.61,0,0,0-.73-1,3.23,3.23,0,0,0-1.14-.58,5,5,0,0,0-1.43-.19,5.39,5.39,0,0,0-2.13.36,3.07,3.07,0,0,0-1.35,1,3.55,3.55,0,0,0-.65,1.63Zm4.16,10a13.49,13.49,0,0,1-5.1-.88A6.85,6.85,0,0,1,21.12,24,8.56,8.56,0,0,1,20,19.33a8.43,8.43,0,0,1,1.14-4.6A6.79,6.79,0,0,1,24.33,12a12.57,12.57,0,0,1,5-.9,13,13,0,0,1,5,.87,6.39,6.39,0,0,1,3.14,2.66,8.76,8.76,0,0,1,1.08,4.57v1.17H25.32a4.56,4.56,0,0,0,.53,2.09,2.86,2.86,0,0,0,1.39,1.26,5.53,5.53,0,0,0,2.3.42A5,5,0,0,0,31,24a3.65,3.65,0,0,0,1.17-.51,2.53,2.53,0,0,0,.79-.77,2.12,2.12,0,0,0,.31-1.05h5.21a5,5,0,0,1-.63,2.51A5.38,5.38,0,0,1,36,26a9.23,9.23,0,0,1-2.83,1.17,15.34,15.34,0,0,1-3.67.4Z"/><path class="cls-1" d="M48.7,27.58a16.63,16.63,0,0,1-3.2-.3,10.36,10.36,0,0,1-2.72-.91,5.47,5.47,0,0,1-1.88-1.54,3.57,3.57,0,0,1-.69-2.18v-.23a.83.83,0,0,1,0-.22h5.14v.3a1.3,1.3,0,0,0,.48,1,3.11,3.11,0,0,0,1.24.59,6.56,6.56,0,0,0,1.63.2,11.43,11.43,0,0,0,1.51-.11,4.13,4.13,0,0,0,1.35-.4,1,1,0,0,0,.55-.93,1,1,0,0,0-.7-1,8,8,0,0,0-1.87-.47L47,21a23.79,23.79,0,0,1-2.32-.53,8.64,8.64,0,0,1-2-.84,4,4,0,0,1-1.45-1.37,3.87,3.87,0,0,1-.54-2.11,4.18,4.18,0,0,1,.64-2.37,4.72,4.72,0,0,1,1.78-1.58,9.38,9.38,0,0,1,2.65-.86,18.2,18.2,0,0,1,3.21-.27,15.59,15.59,0,0,1,3,.27,9.88,9.88,0,0,1,2.53.81,4.66,4.66,0,0,1,1.76,1.39,3.21,3.21,0,0,1,.65,2v.27a.48.48,0,0,1,0,.21H51.66v-.21a1,1,0,0,0-.4-.84,2.67,2.67,0,0,0-1-.49,5.56,5.56,0,0,0-1.41-.17c-.24,0-.53,0-.88.05a6.78,6.78,0,0,0-1,.16,2.58,2.58,0,0,0-.82.36.77.77,0,0,0-.33.66.85.85,0,0,0,.57.78,5.67,5.67,0,0,0,1.5.42l2,.33c.86.13,1.72.29,2.58.46a10.37,10.37,0,0,1,2.4.76,4.56,4.56,0,0,1,1.76,1.42,4,4,0,0,1,.67,2.44,4.74,4.74,0,0,1-.66,2.57,4.58,4.58,0,0,1-1.82,1.66,9.49,9.49,0,0,1-2.74.88,20.83,20.83,0,0,1-3.36.26Z"/><path class="cls-1" d="M59.7,27.22V5.57h5.21V27.22Z"/><path class="cls-1" d="M75.07,24.14A6.32,6.32,0,0,0,76.52,24,5.93,5.93,0,0,0,78,23.42a3.55,3.55,0,0,0,1.09-.88,1.85,1.85,0,0,0,.41-1.21v-1a26,26,0,0,0-3.88.24,6,6,0,0,0-2.33.74,1.48,1.48,0,0,0-.78,1.29,1.22,1.22,0,0,0,.36.92,2,2,0,0,0,1,.47,5.86,5.86,0,0,0,1.29.14Zm-1.71,3.44a12.38,12.38,0,0,1-2.3-.21,6.17,6.17,0,0,1-2-.72,3.54,3.54,0,0,1-1.35-1.39A4.74,4.74,0,0,1,67.27,23a4.5,4.5,0,0,1,.86-2.89,5.31,5.31,0,0,1,2.5-1.65,17,17,0,0,1,3.86-.74c1.48-.13,3.14-.2,5-.2v-.71a2.12,2.12,0,0,0-.36-1.31A2.16,2.16,0,0,0,78,14.8a5.44,5.44,0,0,0-1.8-.26,7.25,7.25,0,0,0-1.59.17,3.17,3.17,0,0,0-1.17.49A1,1,0,0,0,73,16v.24H67.83a.86.86,0,0,1,0-.22V15.8a3.5,3.5,0,0,1,1-2.46,6.43,6.43,0,0,1,2.92-1.65,16.21,16.21,0,0,1,4.67-.58,16.42,16.42,0,0,1,4.43.52,5.7,5.7,0,0,1,2.85,1.65,4.36,4.36,0,0,1,1,3v6.52a1.25,1.25,0,0,0,.25.82.88.88,0,0,0,.73.32H87V27a10.63,10.63,0,0,1-1.2.34,7.68,7.68,0,0,1-1.82.2,6.43,6.43,0,0,1-2.08-.29,3.11,3.11,0,0,1-1.28-.76,2.9,2.9,0,0,1-.68-1.11h-.2A8.41,8.41,0,0,1,76,27.31a11.63,11.63,0,0,1-2.61.27Z"/><path class="cls-1" d="M88.82,27.22V6.68h18V11H94.53v4.3h10.88v4.31H94.53v7.59Z"/><path class="cls-1" d="M109.27,27.22V11.46h5.2V27.22Zm0-17.91V5.57h5.2V9.31Z"/><path class="cls-1" d="M117.7,27.22V11.46H122l.36,2.42h.24a6.5,6.5,0,0,1,1.66-1.57,7.07,7.07,0,0,1,2-.91,8.68,8.68,0,0,1,2.27-.3,7.55,7.55,0,0,1,3.37.67,4.5,4.5,0,0,1,2.06,2,7.5,7.5,0,0,1,.7,3.46v10h-5.23V18a3.87,3.87,0,0,0-.19-1.28,2.46,2.46,0,0,0-.56-.91,2.17,2.17,0,0,0-.91-.54,4.31,4.31,0,0,0-1.24-.18,3.77,3.77,0,0,0-1.84.45,3.47,3.47,0,0,0-1.3,1.22,3.17,3.17,0,0,0-.47,1.74v8.73H117.7Z"/><path class="cls-1" d="M146,23.6a3.81,3.81,0,0,0,2.06-.51,3.12,3.12,0,0,0,1.21-1.4,5.08,5.08,0,0,0,.4-2.1v-.47a5.73,5.73,0,0,0-.22-1.65,3.48,3.48,0,0,0-.69-1.29,3,3,0,0,0-1.15-.83,4,4,0,0,0-1.61-.3,4.08,4.08,0,0,0-2.1.47,2.82,2.82,0,0,0-1.18,1.35,5.24,5.24,0,0,0-.37,2.09v.78a5,5,0,0,0,.39,2.06A2.88,2.88,0,0,0,144,23.14a4.23,4.23,0,0,0,2.07.46Zm-1.56,4a8,8,0,0,1-3.87-.9A6.15,6.15,0,0,1,138,24a10.31,10.31,0,0,1-.92-4.63,10.33,10.33,0,0,1,.92-4.64,6.07,6.07,0,0,1,2.57-2.7,7.86,7.86,0,0,1,3.77-.88,8.51,8.51,0,0,1,1.95.22,6.65,6.65,0,0,1,1.77.69,4.32,4.32,0,0,1,1.36,1.18h.24V5.57h5.2V27.22h-4.24l-.39-2.33H150A5.74,5.74,0,0,1,147.57,27,7.65,7.65,0,0,1,144.46,27.58Z"/><path class="cls-1" d="M162.76,17.56h7.68a3.08,3.08,0,0,0-.26-1.3,2.5,2.5,0,0,0-.73-1,3.27,3.27,0,0,0-1.13-.58,5.07,5.07,0,0,0-1.44-.19,5.37,5.37,0,0,0-2.12.36,3.1,3.1,0,0,0-1.36,1,3.65,3.65,0,0,0-.64,1.63Zm4.15,10a13.53,13.53,0,0,1-5.1-.88A6.83,6.83,0,0,1,158.53,24a8.56,8.56,0,0,1-1.16-4.66,8.43,8.43,0,0,1,1.14-4.6A6.86,6.86,0,0,1,161.74,12a12.48,12.48,0,0,1,5-.9,13,13,0,0,1,5,.87,6.37,6.37,0,0,1,3.13,2.66,8.76,8.76,0,0,1,1.08,4.57v1.17H162.73a4.69,4.69,0,0,0,.52,2.09,2.9,2.9,0,0,0,1.39,1.26,5.59,5.59,0,0,0,2.3.42,5.07,5.07,0,0,0,1.44-.19,3.69,3.69,0,0,0,1.16-.51,2.53,2.53,0,0,0,.79-.77,2.13,2.13,0,0,0,.32-1.05h5.2a5,5,0,0,1-.63,2.51A5.29,5.29,0,0,1,173.41,26a9.17,9.17,0,0,1-2.82,1.17,15.43,15.43,0,0,1-3.68.4Z"/><path class="cls-1" d="M178.42,27.22V11.46h4.25L183,14h.24a5.13,5.13,0,0,1,1-1.55,4.36,4.36,0,0,1,1.48-1,4.87,4.87,0,0,1,1.84-.36,7,7,0,0,1,1.06.09,3.43,3.43,0,0,1,.85.25v4.33h-2.09a4.84,4.84,0,0,0-1.7.28,2.9,2.9,0,0,0-1.18.84,3.61,3.61,0,0,0-.69,1.3,5.73,5.73,0,0,0-.22,1.65v7.42h-5.21Z"/><path class="cls-1" d="M193.48.89h-1.39V4.71h-1V.89h-1.39V0h3.79Z"/><path class="cls-1" d="M198,4.71l-.23-3.25-1,3.09H196l-1-3.09-.24,3.25h-.93L194.11,0h1.17l1.1,3.33L197.47,0h1.16L199,4.71Z"/></g></g></svg>